<svg width="28" height="28" viewBox="0 0 28 28" fill="none" xmlns="http://www.w3.org/2000/svg">
<path fill-rule="evenodd" clip-rule="evenodd" d="M9.2 6.33374C9.2 5.96006 9.52595 5.6 10 5.6H18C18.4741 5.6 18.8 5.96006 18.8 6.33374V7.06748H9.2V6.33374ZM20.4 6.33374V7.06748H22.8C24.5351 7.06748 26 8.42413 26 10.1681V20.9043C26 22.6483 24.5351 24.0049 22.8 24.0049H5.2C3.46491 24.0049 2 22.6483 2 20.9043V10.1681C2 8.42413 3.46491 7.06748 5.2 7.06748H7.6V6.33374C7.6 5.0133 8.70674 4 10 4H18C19.2933 4 20.4 5.0133 20.4 6.33374ZM8.4 8.66748H19.6H22.8C23.7159 8.66748 24.4 9.37088 24.4 10.1681V20.9043C24.4 21.7015 23.7159 22.4049 22.8 22.4049H5.2C4.28412 22.4049 3.6 21.7015 3.6 20.9043V10.1681C3.6 9.37088 4.28412 8.66748 5.2 8.66748H8.4ZM10 15.5362C10 13.4683 11.7587 11.7349 14 11.7349C16.2414 11.7349 18 13.4683 18 15.5362C18 17.604 16.2414 19.3374 14 19.3374C11.7587 19.3374 10 17.604 10 15.5362ZM14 10.1349C10.9395 10.1349 8.40002 12.5216 8.40002 15.5362C8.40002 18.5507 10.9395 20.9374 14 20.9374C17.0606 20.9374 19.6 18.5507 19.6 15.5362C19.6 12.5216 17.0606 10.1349 14 10.1349Z" fill="#002364"/>
</svg>
