<svg width="25" height="24" viewBox="0 0 25 24" fill="none" xmlns="http://www.w3.org/2000/svg">
<path fill-rule="evenodd" clip-rule="evenodd" d="M5.03516 4.57157C5.03516 3.94038 5.52856 3.42871 6.1372 3.42871H19.3617C19.9703 3.42871 20.4637 3.94039 20.4637 4.57157V6.85728C20.4637 7.48846 19.9703 8.00013 19.3617 8.00013H19.3139L18.394 18.4928C18.2908 19.6701 17.339 20.5715 16.199 20.5715H9.29984C8.15989 20.5715 7.20802 19.6701 7.10481 18.4928L6.185 8.00013H6.1372C5.52856 8.00013 5.03516 7.48846 5.03516 6.85728V4.57157ZM19.3617 4.57157H6.1372V6.85728H19.3617V4.57157ZM7.29159 8.00014L8.20233 18.3893C8.25393 18.978 8.72986 19.4287 9.29984 19.4287H16.199C16.769 19.4287 17.2449 18.978 17.2965 18.3893L18.2073 8.00014H7.29159ZM10.5454 9.85721C10.5454 9.54162 10.2987 9.28578 9.99438 9.28578C9.69006 9.28578 9.44336 9.54162 9.44336 9.85721V17.0001C9.44336 17.3156 9.69006 17.5715 9.99438 17.5715C10.2987 17.5715 10.5454 17.3156 10.5454 17.0001V9.85721ZM12.7495 9.28578C13.0538 9.28578 13.3005 9.54162 13.3005 9.85721V17.0001C13.3005 17.3156 13.0538 17.5715 12.7495 17.5715C12.4452 17.5715 12.1985 17.3156 12.1985 17.0001V9.85721C12.1985 9.54162 12.4452 9.28578 12.7495 9.28578ZM16.0556 9.85721C16.0556 9.54162 15.8089 9.28578 15.5046 9.28578C15.2002 9.28578 14.9535 9.54162 14.9535 9.85721V17.0001C14.9535 17.3156 15.2002 17.5715 15.5046 17.5715C15.8089 17.5715 16.0556 17.3156 16.0556 17.0001V9.85721Z" fill="#002364"/>
</svg>
