<svg width="29" height="28" viewBox="0 0 29 28" fill="none" xmlns="http://www.w3.org/2000/svg">
<path fill-rule="evenodd" clip-rule="evenodd" d="M20.2348 4.3796C19.7081 3.87347 18.8671 3.87347 18.3404 4.3796C18.3306 4.38897 18.321 4.39854 18.3114 4.40831L10.3968 12.49C9.95308 12.943 9.70455 13.552 9.70455 14.1861V16.7204C9.7045 16.9521 9.70445 17.1907 9.72704 17.3861C9.75047 17.5887 9.8138 17.9233 10.0896 18.1884C10.3589 18.4472 10.6905 18.5032 10.8889 18.5244C10.9683 18.5329 11.055 18.5379 11.1461 18.541C11.2819 18.5455 11.4275 18.5455 11.5732 18.5454H14.2148C14.8666 18.5454 15.4908 18.283 15.9468 17.8175L23.8704 9.72671C24.3883 9.19789 24.374 8.35755 23.8414 7.8457L20.2348 4.3796ZM19.2929 5.71591L22.5091 8.80687L14.7921 16.6866C14.6402 16.8418 14.4321 16.9293 14.2148 16.9293H11.608C11.4965 16.9293 11.4031 16.9293 11.3214 16.9283L11.3207 16.6846V14.1861C11.3207 13.9747 11.4036 13.7717 11.5515 13.6207L19.2929 5.71591ZM4.25 21.3077C4.25 22.8962 5.59288 24 7.02096 24H17.8427C19.2708 24 20.6136 22.8962 20.6136 21.3077V18.9021C20.6136 18.4 20.228 17.993 19.7524 17.993C19.2767 17.993 18.8911 18.4 18.8911 18.9021V21.3077C18.8911 21.6889 18.524 22.1818 17.8427 22.1818H7.02096C6.33963 22.1818 5.97249 21.6889 5.97249 21.3077V9.41958C5.97249 9.03836 6.33963 8.54545 7.02096 8.54545H9.7578C10.2335 8.54545 10.619 8.13844 10.619 7.63636C10.619 7.13429 10.2335 6.72727 9.7578 6.72727H7.02096C5.59288 6.72727 4.25 7.83111 4.25 9.41958V21.3077Z" fill="#002364"/>
</svg>
