<svg width="28" height="28" viewBox="0 0 28 28" fill="none" xmlns="http://www.w3.org/2000/svg">
<path fill-rule="evenodd" clip-rule="evenodd" d="M4.56623 18.1689C7.25536 20.7723 10.416 22.0608 14 21.9978C17.584 22.0608 20.7446 20.7723 23.4338 18.1689C24.6096 17.0308 25.4576 15.7622 25.9543 14.3384C25.9883 14.2412 26.0027 14.1413 25.9996 14.0436C26.0024 13.9545 25.9906 13.8633 25.9627 13.7737C25.6606 12.8069 25.1507 11.9508 24.3379 10.9126C22.7205 8.84636 20.6099 7.41908 17.9993 6.61885C16.6425 6.20281 15.3088 5.99108 14 6.00029C12.6912 5.99108 11.3575 6.20281 10.0007 6.61885C7.39013 7.41908 5.27945 8.84636 3.6621 10.9126C2.84934 11.9508 2.33943 12.8069 2.03733 13.7737C2.00935 13.8633 1.99761 13.9545 2.0004 14.0436C1.99734 14.1413 2.01173 14.2412 2.04565 14.3384C2.54235 15.7622 3.39045 17.0308 4.56623 18.1689ZM14 20.4556C17.2309 20.5186 20.0449 19.3687 22.4648 17.026C23.4101 16.111 24.0945 15.1204 24.516 14.0335C24.2706 13.3666 23.8657 12.7129 23.2309 11.9021C21.8027 10.0775 19.9406 8.81829 17.6013 8.10121C16.3693 7.72345 15.1689 7.5333 14 7.54254C12.8311 7.5333 11.6307 7.72345 10.3987 8.10121C8.05941 8.81829 6.1973 10.0775 4.76911 11.9021C4.13432 12.7129 3.72944 13.3666 3.48404 14.0335C3.90553 15.1204 4.58994 16.111 5.5352 17.026C7.95506 19.3687 10.7691 20.5186 14 20.4556ZM18.32 14C18.32 16.5449 16.3859 18.608 14 18.608C11.6141 18.608 9.68 16.5449 9.68 14C9.68 11.4551 11.6141 9.392 14 9.392C16.3859 9.392 18.32 11.4551 18.32 14ZM11.12 14C11.12 15.6966 12.4094 17.072 14 17.072C15.5906 17.072 16.88 15.6966 16.88 14C16.88 12.3034 15.5906 10.928 14 10.928C12.4094 10.928 11.12 12.3034 11.12 14Z" fill="#002364"/>
</svg>
