<svg width="28" height="28" viewBox="0 0 28 28" fill="none" xmlns="http://www.w3.org/2000/svg">
<path fill-rule="evenodd" clip-rule="evenodd" d="M5.4 4.6C4.95817 4.6 4.6 4.95817 4.6 5.4C4.6 5.84183 4.95817 6.2 5.4 6.2C5.84183 6.2 6.2 5.84183 6.2 5.4C6.2 4.95817 5.84183 4.6 5.4 4.6ZM3 5.4C3 4.07452 4.07452 3 5.4 3C6.72548 3 7.8 4.07452 7.8 5.4C7.8 6.72548 6.72548 7.8 5.4 7.8C4.07452 7.8 3 6.72548 3 5.4ZM23 4.6C22.5581 4.6 22.2 4.95817 22.2 5.4C22.2 5.84183 22.5581 6.2 23 6.2C23.4418 6.2 23.8 5.84183 23.8 5.4C23.8 4.95817 23.4418 4.6 23 4.6ZM20.6 5.4C20.6 4.07452 21.6745 3 23 3C24.3255 3 25.4 4.07452 25.4 5.4C25.4 6.72548 24.3255 7.8 23 7.8C21.6745 7.8 20.6 6.72548 20.6 5.4ZM13.4 5.4C13.4 4.95817 13.7582 4.6 14.2 4.6C14.6418 4.6 15 4.95817 15 5.4C15 5.84183 14.6418 6.2 14.2 6.2C13.7582 6.2 13.4 5.84183 13.4 5.4ZM14.2 3C12.8745 3 11.8 4.07452 11.8 5.4C11.8 6.72548 12.8745 7.8 14.2 7.8C15.5255 7.8 16.6 6.72548 16.6 5.4C16.6 4.07452 15.5255 3 14.2 3ZM5.4 22.2C4.95817 22.2 4.6 22.5581 4.6 23C4.6 23.4418 4.95817 23.8 5.4 23.8C5.84183 23.8 6.2 23.4418 6.2 23C6.2 22.5581 5.84183 22.2 5.4 22.2ZM3 23C3 21.6745 4.07452 20.6 5.4 20.6C6.72548 20.6 7.8 21.6745 7.8 23C7.8 24.3255 6.72548 25.4 5.4 25.4C4.07452 25.4 3 24.3255 3 23ZM22.2 23C22.2 22.5581 22.5581 22.2 23 22.2C23.4418 22.2 23.8 22.5581 23.8 23C23.8 23.4418 23.4418 23.8 23 23.8C22.5581 23.8 22.2 23.4418 22.2 23ZM23 20.6C21.6745 20.6 20.6 21.6745 20.6 23C20.6 24.3255 21.6745 25.4 23 25.4C24.3255 25.4 25.4 24.3255 25.4 23C25.4 21.6745 24.3255 20.6 23 20.6ZM14.2 22.2C13.7582 22.2 13.4 22.5581 13.4 23C13.4 23.4418 13.7582 23.8 14.2 23.8C14.6418 23.8 15 23.4418 15 23C15 22.5581 14.6418 22.2 14.2 22.2ZM11.8 23C11.8 21.6745 12.8745 20.6 14.2 20.6C15.5255 20.6 16.6 21.6745 16.6 23C16.6 24.3255 15.5255 25.4 14.2 25.4C12.8745 25.4 11.8 24.3255 11.8 23ZM4.6 14.2C4.6 13.7582 4.95817 13.4 5.4 13.4C5.84183 13.4 6.2 13.7582 6.2 14.2C6.2 14.6419 5.84183 15 5.4 15C4.95817 15 4.6 14.6419 4.6 14.2ZM5.4 11.8C4.07452 11.8 3 12.8746 3 14.2C3 15.5255 4.07452 16.6 5.4 16.6C6.72548 16.6 7.8 15.5255 7.8 14.2C7.8 12.8746 6.72548 11.8 5.4 11.8ZM23 13.4C22.5581 13.4 22.2 13.7582 22.2 14.2C22.2 14.6419 22.5581 15 23 15C23.4418 15 23.8 14.6419 23.8 14.2C23.8 13.7582 23.4418 13.4 23 13.4ZM20.6 14.2C20.6 12.8746 21.6745 11.8 23 11.8C24.3255 11.8 25.4 12.8746 25.4 14.2C25.4 15.5255 24.3255 16.6 23 16.6C21.6745 16.6 20.6 15.5255 20.6 14.2ZM13.4 14.2C13.4 13.7582 13.7582 13.4 14.2 13.4C14.6418 13.4 15 13.7582 15 14.2C15 14.6419 14.6418 15 14.2 15C13.7582 15 13.4 14.6419 13.4 14.2ZM14.2 11.8C12.8745 11.8 11.8 12.8746 11.8 14.2C11.8 15.5255 12.8745 16.6 14.2 16.6C15.5255 16.6 16.6 15.5255 16.6 14.2C16.6 12.8746 15.5255 11.8 14.2 11.8Z" fill="#002364"/>
</svg>
