<svg width="28" height="28" viewBox="0 0 28 28" fill="none" xmlns="http://www.w3.org/2000/svg">
<path fill-rule="evenodd" clip-rule="evenodd" d="M23.4657 13.0829C23.197 8.02138 19.0078 4 13.8793 4C11.1458 4 8.59515 5.14966 6.78806 7.12893C6.49016 7.45522 6.51317 7.96123 6.83945 8.25913C7.16574 8.55704 7.67175 8.53403 7.96966 8.20774C9.4767 6.55712 11.6002 5.6 13.8793 5.6C18.0416 5.6 21.4614 8.7786 21.8438 12.8408L20.9122 12.0647L20.8241 12.0009C20.4902 11.7916 20.0447 11.856 19.7854 12.1672C19.5026 12.5066 19.5485 13.0111 19.8879 13.2939L22.8 15.7207L25.7122 13.2939L25.7909 13.2188C26.0569 12.9281 26.0739 12.4783 25.8146 12.1672L25.7395 12.0885C25.4488 11.8224 24.999 11.8055 24.6879 12.0647L23.4657 13.0829ZM2.18544 15.0328C1.92616 14.7217 1.94309 14.2719 2.20915 13.9812L2.28787 13.9061L5.20002 11.4793L8.11217 13.9061C8.45159 14.1889 8.49745 14.6934 8.2146 15.0328C7.95532 15.344 7.50983 15.4084 7.17594 15.1991L7.08787 15.1353L5.89753 14.1437C6.17703 18.3084 9.64379 21.6 13.8793 21.6C16.1583 21.6 18.2815 20.6431 19.7886 18.9928C20.0865 18.6665 20.5925 18.6435 20.9188 18.9415C21.245 19.2394 21.268 19.7454 20.9701 20.0717C19.163 22.0506 16.6126 23.2 13.8793 23.2C8.81559 23.2 4.66754 19.2794 4.30506 14.3082L3.31217 15.1353C3.00103 15.3945 2.55122 15.3776 2.26055 15.1115L2.18544 15.0328Z" fill="#002364"/>
</svg>
