<svg width="28" height="28" viewBox="0 0 28 28" fill="none" xmlns="http://www.w3.org/2000/svg">
<path fill-rule="evenodd" clip-rule="evenodd" d="M5 5.33333C5 4.59695 5.57563 4 6.28571 4H21.7143C22.4244 4 23 4.59695 23 5.33333V7.99999C23 8.73637 22.4244 9.33332 21.7143 9.33332H21.6585L20.5854 21.5747C20.465 22.9483 19.3545 24 18.0245 24H9.97547C8.64552 24 7.53501 22.9483 7.4146 21.5747L6.34149 9.33332H6.28571C5.57563 9.33332 5 8.73637 5 7.99999V5.33333ZM21.7143 5.33333H6.28571V7.99999H21.7143V5.33333ZM7.6325 9.33333L8.69503 21.454C8.75524 22.1408 9.31049 22.6666 9.97547 22.6666H18.0245C18.6895 22.6666 19.2447 22.1408 19.3049 21.454L20.3675 9.33333H7.6325ZM11.4286 11.4999C11.4286 11.1317 11.1408 10.8333 10.7858 10.8333C10.4307 10.8333 10.1429 11.1317 10.1429 11.4999V19.8332C10.1429 20.2014 10.4307 20.4999 10.7858 20.4999C11.1408 20.4999 11.4286 20.2014 11.4286 19.8332V11.4999ZM14 10.8333C14.3551 10.8333 14.6429 11.1317 14.6429 11.4999V19.8332C14.6429 20.2014 14.3551 20.4999 14 20.4999C13.645 20.4999 13.3572 20.2014 13.3572 19.8332V11.4999C13.3572 11.1317 13.645 10.8333 14 10.8333ZM17.8572 11.4999C17.8572 11.1317 17.5693 10.8333 17.2143 10.8333C16.8593 10.8333 16.5715 11.1317 16.5715 11.4999V19.8332C16.5715 20.2014 16.8593 20.4999 17.2143 20.4999C17.5693 20.4999 17.8572 20.2014 17.8572 19.8332V11.4999Z" fill="#002364"/>
</svg>
